<?xml version="1.0" standalone="no"?>
<!DOCTYPE svg PUBLIC "-//W3C//DTD SVG 20010904//EN"
 "http://www.w3.org/TR/2001/REC-SVG-20010904/DTD/svg10.dtd">
<svg version="1.0" xmlns="http://www.w3.org/2000/svg"
 width="248.000000pt" height="248.000000pt" viewBox="0 0 248.000000 248.000000"
 preserveAspectRatio="xMidYMid meet">
<metadata>
Created by potrace 1.11, written by Peter Selinger 2001-2013
</metadata>
<g transform="translate(0.000000,248.000000) scale(0.100000,-0.100000)"
fill="#000000" stroke="none">
<path d="M915 2390 c-141 -74 -150 -80 -149 -107 1 -35 13 -176 19 -223 2 -19
7 -66 10 -105 3 -38 7 -90 10 -115 2 -25 6 -74 10 -110 l5 -65 -122 -44 c-255
-90 -314 -112 -343 -126 -28 -13 -24 -13 55 -10 218 10 338 16 373 18 21 1 42
0 47 -3 4 -3 11 -43 15 -90 4 -47 9 -96 10 -110 2 -14 6 -65 10 -115 4 -49 8
-101 10 -115 2 -14 7 -59 10 -100 3 -41 8 -91 10 -110 4 -34 8 -80 20 -220 3
-36 8 -83 10 -105 5 -46 15 -159 21 -225 2 -25 6 -76 10 -115 4 -38 8 -95 8
-125 1 -56 12 -76 31 -60 10 8 141 49 700 217 138 41 254 77 259 80 4 3 -58
72 -139 153 l-148 148 -96 -81 c-53 -45 -138 -117 -189 -160 -51 -44 -95 -78
-97 -75 -2 2 -7 37 -10 78 -3 41 -7 91 -10 110 -4 40 -12 125 -20 220 -3 36
-8 83 -10 105 -2 22 -7 72 -10 110 -3 39 -8 86 -10 105 -2 19 -7 69 -10 110
-3 41 -8 93 -10 115 -2 22 -7 69 -10 105 -3 36 -8 85 -10 110 -3 25 -7 74 -10
110 l-6 66 168 86 c239 122 580 296 701 357 56 29 102 54 102 56 0 3 -37 -9
-82 -26 -46 -17 -94 -35 -108 -39 -14 -5 -68 -24 -120 -43 -52 -19 -183 -66
-290 -105 -107 -38 -238 -86 -291 -105 -59 -21 -96 -30 -96 -23 0 22 -14 182
-19 216 -2 19 -6 66 -9 103 -3 37 -7 82 -9 100 -2 18 -8 73 -12 122 -4 50 -8
95 -9 100 -1 6 -3 16 -3 23 -1 6 -5 11 -9 11 -5 -1 -75 -37 -158 -79z"/>
</g>
</svg>
